# xmcd
#
# Track frame offsets:
#	150
#	14401
#	31343
#	46827
#	58006
#	72901
#	88480
#	101356
#	117651
#	133226
#	147580
#	166196
#	182421
#	201224
#
# Disc length: 2833 seconds
#
# Revision: 0
# Processed by: cddbd v1.5.2PL0 Copyright (c) Steve Scherf et al.
# Submitted via: audiograbber 1.82.02
#
DISCID=cc0b0f0e
DTITLE=Slim Dusty - Cattlemen From The High Plains
DYEAR=1987
DGENRE=Country
TTITLE0=Cattlemen from the high plains
TTITLE1=Innamincka Muster
TTITLE2=Axe mark on a Gidgee
TTITLE3=Big Gulf rivers
TTITLE4=A land he calls his own
TTITLE5=The Mad Cook
TTITLE6=The bush has had enough
TTITLE7=Thats my kind of brand
TTITLE8=The annual rodeo show
TTITLE9=Keeroongooloo Station
TTITLE10=When the bitumen reaches Pooncarie
TTITLE11=Bullock dung Narration
TTITLE12=King Alligator
TTITLE13=Baking a Brownie
EXTD=
EXTT0=
EXTT1=
EXTT2=
EXTT3=
EXTT4=
EXTT5=
EXTT6=
EXTT7=
EXTT8=
EXTT9=
EXTT10=
EXTT11=
EXTT12=
EXTT13=
PLAYORDER=
